<!DOCTYPE svg PUBLIC "-//W3C//DTD SVG 1.1//EN" "http://www.w3.org/Graphics/SVG/1.1/DTD/svg11.dtd">
<!-- Uploaded to: SVG Repo, www.svgrepo.com, Transformed by: SVG Repo Mixer Tools -->
<svg width="800px" height="800px" viewBox="-7.2 -7.2 38.40 38.40" id="Layer_1" data-name="Layer 1" xmlns="http://www.w3.org/2000/svg" fill="#000000">

<g id="SVGRepo_bgCarrier" stroke-width="0" transform="translate(0,0), scale(1)">

<rect x="-7.2" y="-7.2" width="38.40" height="38.40" rx="9.6" fill="#ffffff" strokewidth="0"/>

</g>

<g id="SVGRepo_tracerCarrier" stroke-linecap="round" stroke-linejoin="round" stroke="#CCCCCC" stroke-width="0.048"/>

<g id="SVGRepo_iconCarrier">

<defs>

<style>.cls-1{fill:none;stroke:#4b5320;stroke-miterlimit:10;stroke-width:1.92px;}</style>

</defs>

<path class="cls-1" d="M10.56,5.77l2.72-2.72a5.43,5.43,0,0,1,3.84-1.59,5.43,5.43,0,0,1,5.42,5.42A5.43,5.43,0,0,1,21,10.72l-2.72,2.72"/>

<path class="cls-1" d="M5.77,10.56,3.05,13.28A5.42,5.42,0,1,0,10.72,21l2.72-2.72"/>

<line class="cls-1" x1="16.79" y1="7.21" x2="7.21" y2="16.79"/>

<line class="cls-1" x1="20.63" y1="15.83" x2="23.5" y2="15.83"/>

<line class="cls-1" x1="15.83" y1="20.63" x2="15.83" y2="23.5"/>

<line class="cls-1" x1="19.19" y1="19.19" x2="21.1" y2="21.1"/>

<line class="cls-1" x1="3.38" y1="8.17" x2="0.5" y2="8.17"/>

<line class="cls-1" x1="8.17" y1="3.38" x2="8.17" y2="0.5"/>

<line class="cls-1" x1="4.81" y1="4.81" x2="2.9" y2="2.9"/>

</g>

</svg>